<svg width="28" height="30" viewBox="0 0 28 30" fill="none" xmlns="http://www.w3.org/2000/svg">
<style>
    path {
        fill: #272727;
    }
    @media (prefers-color-scheme: dark) {
        path { fill: white; }
    }
</style>

<path d="M8.48805 30C7.87479 30 7.36607 29.794 6.96188 29.3819C6.55768 28.9698 6.35559 28.4615 6.35559 27.8571C6.35559 27.2527 6.55768 26.7445 6.96188 26.3324C7.36607 25.9203 7.87479 25.7143 8.48805 25.7143C9.10131 25.7143 9.61701 25.9203 10.0351 26.3324C10.4533 26.7445 10.6623 27.2527 10.6623 27.8571C10.6623 28.4615 10.4533 28.9698 10.0351 29.3819C9.61701 29.794 9.10131 30 8.48805 30ZM23.8753 30C23.262 30 22.7533 29.794 22.3491 29.3819C21.9449 28.9698 21.7428 28.4615 21.7428 27.8571C21.7428 27.2527 21.9449 26.7445 22.3491 26.3324C22.7533 25.9203 23.262 25.7143 23.8753 25.7143C24.4885 25.7143 25.0042 25.9203 25.4223 26.3324C25.8405 26.7445 26.0495 27.2527 26.0495 27.8571C26.0495 28.4615 25.8405 28.9698 25.4223 29.3819C25.0042 29.794 24.4885 30 23.8753 30ZM5.60295 4.2033L10.3696 14.0934H21.3665C21.6174 14.0934 21.8473 14.0316 22.0564 13.908C22.2655 13.7843 22.4257 13.6126 22.5372 13.3929L27.0531 5.35714C27.2203 5.05494 27.2342 4.78709 27.0949 4.55357C26.9555 4.32005 26.7186 4.2033 26.384 4.2033H5.60295ZM5.10119 3.2967H26.0077C26.7604 3.2967 27.3248 3.59203 27.7012 4.18269C28.0775 4.77335 28.0984 5.38462 27.7639 6.01648L23.4153 13.8462C23.1923 14.2033 22.9066 14.4849 22.5582 14.6909C22.2097 14.897 21.8404 15 21.4501 15H9.57519L7.31729 19.0797C7.12216 19.4093 7.12216 19.7665 7.31729 20.1511C7.51241 20.5357 7.81904 20.728 8.23717 20.728H26.0495V21.6346H8.36261C7.49848 21.6346 6.87128 21.3187 6.48103 20.6868C6.09077 20.0549 6.09077 19.3819 6.48103 18.6676L9.19888 13.8874L2.92691 0.906593H0V0H3.5123L5.10119 3.2967Z" fill="#272727"/>
</svg>
