<svg width="42" height="50" viewBox="0 0 42 50" fill="none" xmlns="http://www.w3.org/2000/svg">
  <style>
    :root { --color: #272727;; }
    @media (prefers-color-scheme: light) { :root { --color: #272727;; } }
    @media (prefers-color-scheme: dark) { :root { --color: #FFF; } }
    path {
      fill: var(--color);
    }
  </style>

<path fill-rule="evenodd" clip-rule="evenodd" d="M23.9046 14.5435C23.9046 15.9769 24.407 17.2955 25.3559 18.3594C26.6906 19.8531 28.1522 20.0572 29.1467 19.9676C30.3297 19.8589 31.5196 19.2532 32.3323 18.3456L32.5405 18.1122C33.1376 17.4425 33.5038 17.0319 33.8604 16.6443L36.3108 19.3199L38.0312 17.3833L38.0546 17.3355L35.6404 14.6277L37.3575 12.7007L35.5625 10.6883L33.8452 12.6172C33.8452 12.6172 28.8271 6.97741 28.2046 6.27232C27.8701 5.89156 27.6651 5.49082 27.6651 4.8544C27.6651 4.17993 27.9365 3.72986 28.1675 3.47291C28.5031 3.09538 28.9974 2.86067 29.4497 2.86067C30.1396 2.86067 30.5652 3.27044 30.7107 3.44421L30.7481 3.48612L30.7855 3.44615L31.8054 2.30646L32.5094 1.51722L32.5396 1.47757L32.4919 1.41792C32.0303 0.888535 31.0161 0 29.4437 0C28.2454 0 27.1357 0.535831 26.3221 1.50755C25.5598 2.41511 25.125 3.63121 25.125 4.84505C25.125 6.86103 26.1485 8.10001 26.8723 8.85443L25.3453 10.5299C24.457 11.5245 23.9046 13.0647 23.9046 14.5435ZM27.1463 12.5537L28.6627 10.8524L32.0571 14.6219C31.9021 14.8008 31.2447 15.5446 30.5209 16.3489C29.6467 17.3126 28.1988 17.5151 27.1463 16.337C26.6871 15.8189 26.4446 15.1767 26.4446 14.4749C26.4446 13.7679 26.708 13.0476 27.1463 12.5537ZM38.2092 26.537C35.8893 23.9453 32.8027 22.5193 29.5206 22.5193C26.2388 22.5193 23.1518 23.9453 20.8313 26.537C18.5114 29.1314 17.2332 32.5763 17.2332 36.2415C17.2332 39.9072 18.5114 43.35 20.8313 45.9417C23.1518 48.5351 26.2388 49.9613 29.5206 49.9613C32.8027 49.9613 35.8893 48.5351 38.2092 45.9417C40.5303 43.35 41.809 39.9072 41.809 36.2415C41.809 32.5763 40.5303 29.1314 38.2092 26.537ZM29.5206 46.4314C27.0824 46.4314 24.7896 45.3702 23.0665 43.4456C21.3426 41.5212 20.3902 38.9611 20.3902 36.2415C20.3902 33.5164 21.3426 30.9585 23.0665 29.0341C24.7896 27.106 27.0824 26.0464 29.5206 26.0464C31.9587 26.0464 34.2506 27.106 35.9758 29.0341C37.6974 30.9585 38.6486 33.5164 38.6486 36.2415C38.6486 41.8596 34.5546 46.4314 29.5206 46.4314ZM17.2531 16.4495C17.2531 22.2885 14.3931 27.6137 9.78025 30.3661C11.0979 31.3005 12.2072 32.5906 12.9747 34.1079C13.7858 35.6987 14.2152 37.5126 14.2152 39.3529C14.2152 42.1945 13.2201 44.8687 11.4183 46.8822C9.62027 48.8922 7.22363 50 4.67677 50H0.00692014L0 0.679061H3.13304C6.90442 0.679061 10.4518 2.31847 13.1212 5.30043C15.79 8.27919 17.2531 12.2396 17.2531 16.4495ZM10.8849 7.794C8.82588 5.49618 6.08644 4.2251 3.17744 4.20997V28.691C6.08644 28.6758 8.82588 27.4045 10.8849 25.1075C12.9577 22.7969 14.0926 19.7212 14.0926 16.4495C14.0926 13.1816 12.9577 10.1083 10.8849 7.794ZM3.17744 46.4711H4.67331C8.18836 46.4711 11.0483 43.2779 11.0483 39.3529C11.0483 37.4511 10.3869 35.6649 9.18373 34.3171C7.97849 32.9749 6.36468 32.237 4.66005 32.237C4.66005 32.237 3.43636 32.2293 3.17744 32.2293V46.4711Z"/>

</svg>
