<svg width="32" height="32" viewBox="0 0 32 32" fill="none" xmlns="http://www.w3.org/2000/svg">
<path d="M31.195 32L18.4151 19.2201C17.4088 20.1258 16.2516 20.8134 14.9434 21.283C13.6352 21.7526 12.327 21.9874 11.0189 21.9874C7.93291 21.9874 5.32495 20.9224 3.19497 18.7925C1.06499 16.6625 0 14.0713 0 11.0189C0 7.93292 1.06499 5.32495 3.19497 3.19497C5.32495 1.06499 7.91614 0 10.9686 0C14.0545 0 16.6709 1.06499 18.8176 3.19497C20.9644 5.32495 22.0377 7.91614 22.0377 10.9686C22.0377 12.3438 21.7862 13.6939 21.283 15.0189C20.7799 16.3438 20.0922 17.4759 19.2201 18.4151L32 31.1447L31.195 32ZM11.0189 20.8805C13.8029 20.8805 16.1509 19.9329 18.0629 18.0377C19.9748 16.1426 20.9308 13.7862 20.9308 10.9686C20.9308 8.18449 19.9748 5.84486 18.0629 3.94969C16.1509 2.05451 13.8029 1.10692 11.0189 1.10692C8.2348 1.10692 5.88679 2.05451 3.97484 3.94969C2.06289 5.84486 1.10692 8.18449 1.10692 10.9686C1.10692 13.7862 2.06289 16.1426 3.97484 18.0377C5.88679 19.9329 8.2348 20.8805 11.0189 20.8805Z" fill="#272727"/>
</svg>
