<svg width="26" height="30" viewBox="0 0 26 30" fill="none" xmlns="http://www.w3.org/2000/svg">
<path fill-rule="evenodd" clip-rule="evenodd" d="M14.3428 8.72611C14.3428 9.58617 14.6442 10.3773 15.2135 11.0157C16.0143 11.9119 16.8913 12.0343 17.488 11.9806C18.1978 11.9154 18.9118 11.5519 19.3994 11.0074L19.5243 10.8673C19.8826 10.4655 20.1023 10.2192 20.3163 9.98657L21.7865 11.5919L22.8187 10.43L22.8327 10.4013L21.3843 8.77661L22.4145 7.62041L21.3375 6.41296L20.3071 7.57031C20.3071 7.57031 17.2963 4.18645 16.9227 3.76339C16.7221 3.53494 16.599 3.29449 16.599 2.91264C16.599 2.50796 16.7619 2.23792 16.9005 2.08374C17.1018 1.85723 17.3984 1.7164 17.6698 1.7164C18.0838 1.7164 18.3391 1.96226 18.4264 2.06653L18.4489 2.09167L18.4713 2.06769L19.0833 1.38388L19.5057 0.910331L19.5238 0.886541L19.4951 0.850751C19.2182 0.533121 18.6096 0 17.6662 0C16.9472 0 16.2814 0.321499 15.7933 0.904531C15.3359 1.44907 15.075 2.17872 15.075 2.90703C15.075 4.11662 15.6891 4.86001 16.1234 5.31266L15.2072 6.31796C14.6742 6.91471 14.3428 7.83881 14.3428 8.72611ZM16.2878 7.53221L17.1976 6.51141L19.2342 8.77311C19.1413 8.88046 18.7468 9.32677 18.3125 9.80937C17.788 10.3876 16.9193 10.5091 16.2878 9.80222C16.0122 9.49137 15.8668 9.10602 15.8668 8.68491C15.8668 8.26071 16.0248 7.82856 16.2878 7.53221ZM22.9255 15.9222C21.5335 14.3672 19.6816 13.5116 17.7123 13.5116C15.7433 13.5116 13.8911 14.3672 12.4988 15.9222C11.1068 17.4788 10.3399 19.5458 10.3399 21.7449C10.3399 23.9443 11.1068 26.01 12.4988 27.565C13.8911 29.121 15.7433 29.9768 17.7123 29.9768C19.6816 29.9768 21.5335 29.121 22.9255 27.565C24.3182 26.01 25.0854 23.9443 25.0854 21.7449C25.0854 19.5458 24.3182 17.4788 22.9255 15.9222ZM17.7123 27.8588C16.2494 27.8588 14.8738 27.2221 13.8399 26.0673C12.8055 24.9127 12.2341 23.3766 12.2341 21.7449C12.2341 20.1098 12.8055 18.5751 13.8399 17.4205C14.8738 16.2636 16.2494 15.6278 17.7123 15.6278C19.1752 15.6278 20.5504 16.2636 21.5855 17.4205C22.6184 18.5751 23.1892 20.1098 23.1892 21.7449C23.1892 25.1158 20.7328 27.8588 17.7123 27.8588ZM10.3518 9.86972C10.3518 13.3731 8.63584 16.5682 5.86815 18.2197C6.65877 18.7803 7.3243 19.5543 7.78482 20.4647C8.27149 21.4192 8.52911 22.5075 8.52911 23.6117C8.52911 25.3167 7.93206 26.9212 6.851 28.1293C5.77216 29.3353 4.33418 30 2.80606 30H0.00415208L0 0.407437H1.87982C4.14265 0.407437 6.2711 1.39108 7.87272 3.18026C9.47403 4.96751 10.3518 7.34376 10.3518 9.86972ZM6.53093 4.6764C5.29553 3.29771 3.65186 2.53506 1.90646 2.52598V17.2146C3.65186 17.2055 5.29553 16.4427 6.53093 15.0645C7.77465 13.6781 8.45555 11.8327 8.45555 9.86972C8.45555 7.90896 7.77465 6.06496 6.53093 4.6764ZM1.90646 27.8826H2.80399C4.91301 27.8826 6.62901 25.9667 6.62901 23.6117C6.62901 22.4706 6.23214 21.3989 5.51024 20.5903C4.78709 19.7849 3.81881 19.3422 2.79603 19.3422C2.79603 19.3422 2.06181 19.3376 1.90646 19.3376V27.8826Z" fill="white"/>
</svg>
